<?xml version="1.0" encoding="UTF-8"?>
<svg width="335px" height="360px" viewBox="0 0 335 360" version="1.1" xmlns="http://www.w3.org/2000/svg" xmlns:xlink="http://www.w3.org/1999/xlink">
    <title>Group</title>
    <g id="Page-1" stroke="none" stroke-width="1" fill="none" fill-rule="evenodd">
        <g id="Group" fill="#1A1919">
            <path d="M135.558158,196.55147 C135.55262,196.564284 125.999697,195.439054 116.586158,188.235361 C107.797543,181.401823 100.113851,172.855054 96.253543,164.421823 C93.2489277,157.939054 88.465543,143.570438 93.7289277,136.975054 C96.39662,133.686131 105.191697,136.432284 107.995082,137.587977 C126.681851,145.048284 137.313851,180.071669 135.558158,196.55147 Z M165.908928,190.1729 C166.856005,189.781515 162.016312,172.542131 161.414466,170.665515 C154.343697,147.298746 138.302466,115.777515 109.372312,118.015054 C104.102466,118.384284 93.0901584,121.195054 89.6101584,125.583361 C78.7003123,139.217207 84.589543,160.207054 92.5427738,173.311054 C100.929851,187.096284 110.596312,195.087361 127.542158,202.846746 C130.458158,204.189823 135.986466,206.035977 135.986466,206.035977 C135.986466,206.035977 135.48062,216.411361 134.565851,219.892284 C128.431082,243.431669 116.381235,273.498131 89.4818507,276.739054 C46.8956969,281.887054 13.2993892,210.806438 12.1418507,140.529823 C11.61662,108.160284 19.5892354,72.9799767 38.5520046,45.9384382 C43.50062,38.8473613 51.5304661,32.8602844 58.8680046,28.2504382 C72.973543,19.3307459 91.5892354,14.9470536 111.151082,19.187669 C141.669851,25.8135152 156.469543,44.6784382 169.407389,72.1242844 C196.535697,129.501823 177.075389,184.094438 165.908928,190.1729 Z M207.27662,36.0845921 C184.595697,9.55905363 150.68462,-1.45510022 115.919697,0.15289978 C106.446158,0.565515164 96.5729277,1.44336132 87.2747738,3.63289978 C50.7800046,12.2184382 0.128004582,48.5285921 0,143.284284 C-0.0556877256,167.767054 3.72615843,194.943361 10.28462,218.683977 C17.1864661,243.823054 29.0350815,275.148592 47.6092354,293.8529 C70.1193892,316.516284 109.950158,318.987361 134.718158,294.340284 C146.588005,282.439977 154.685235,263.178131 159.270158,247.176592 C161.603697,239.169823 163.131389,230.9969 164.011082,222.719669 C164.395082,219.178746 164.446774,206.431977 164.446774,206.431977 C164.446774,206.431977 169.328005,205.210746 171.131697,204.811054 C201.08462,198.532284 221.405235,174.319054 228.761235,150.653207 C231.534158,141.868284 246.831389,82.499669 207.27662,36.0845921 L207.27662,36.0845921 Z" id="Fill-1"></path>
            <path d="M316.040005,273.315361 C330.278466,286.831054 325.550466,325.9529 296.579697,327.559977 C264.493543,329.3369 251.228005,296.503054 250.924312,269.440284 C253.340005,269.979361 304.130466,256.697207 320.324005,182.378438 C328.609543,144.313515 311.873235,73.6621305 266.896312,50.1744382 C280.112928,72.2378229 286.403697,99.1888998 284.925851,128.2769 C281.446774,198.045823 247.171082,232.1009 206.303697,245.195669 C206.303697,254.280592 207.692928,259.225515 209.370158,276.430746 C213.367082,318.849823 232.12862,350.562131 269.810466,358.142438 C332.459697,370.730438 350.629543,287.514131 316.040005,273.315361" id="Fill-3"></path>
        </g>
    </g>
</svg>